<?xml version="1.0" encoding="utf-8"?>
<svg xmlns="http://www.w3.org/2000/svg" xmlns:xlink="http://www.w3.org/1999/xlink" width="200" height="54" viewBox="0 70 200 54" version="1.1">
  <g id="surface1">
    <rect x="0" y="0" width="200" height="200" style="fill:rgb(100%,100%,100%);fill-opacity:1;stroke:none;" />
    <path style=" stroke:none;fill-rule:nonzero;fill:rgb(0%,0%,0%);fill-opacity:1;" d="M 75.472656 99.65625 C 75.367188 99.382812 75.3125 99.007812 75.3125 98.523438 C 75.3125 98.039062 75.480469 96.609375 75.808594 94.230469 C 76.140625 91.859375 76.304688 89.957031 76.304688 88.515625 C 76.304688 88.179688 76.28125 87.71875 76.230469 87.128906 C 77.082031 87.179688 77.617188 87.378906 77.835938 87.734375 C 77.945312 87.941406 78.019531 88.140625 78.050781 88.324219 C 78.085938 88.507812 78.101562 88.800781 78.101562 89.203125 C 78.101562 89.597656 77.917969 91.097656 77.558594 93.703125 C 77.1875 96.304688 77 98.164062 76.992188 99.273438 C 77.046875 99.253906 77.148438 99.246094 77.292969 99.246094 C 79.726562 99.246094 81.539062 99.078125 82.730469 98.742188 C 82.648438 99.390625 82.429688 99.898438 82.066406 100.257812 C 81.695312 100.621094 81.238281 100.800781 80.691406 100.800781 C 80.53125 100.800781 80.046875 100.765625 79.234375 100.695312 C 78.414062 100.621094 77.621094 100.585938 76.859375 100.585938 C 76.09375 100.585938 75.328125 100.65625 74.554688 100.800781 C 74.707031 100.304688 75.011719 99.921875 75.472656 99.65625 Z M 86.574219 94.0625 C 86.253906 94.625 86.003906 95.203125 85.828125 95.796875 C 85.652344 96.386719 85.5625 96.953125 85.5625 97.5 C 85.5625 98.039062 85.683594 98.496094 85.925781 98.875 C 86.164062 99.25 86.511719 99.441406 86.960938 99.441406 C 87.597656 99.441406 88.1875 99.09375 88.734375 98.402344 C 89.289062 97.703125 89.714844 96.863281 90.011719 95.882812 C 90.308594 94.894531 90.457031 93.984375 90.457031 93.148438 C 90.457031 92.3125 90.425781 91.625 90.359375 91.085938 C 90.625 91.0625 90.796875 91.046875 90.867188 91.046875 C 91.824219 91.046875 92.300781 91.539062 92.300781 92.519531 C 92.300781 92.726562 92.164062 93.597656 91.890625 95.125 C 91.625 96.652344 91.492188 97.871094 91.492188 98.789062 C 91.492188 99.703125 91.667969 100.515625 92.011719 101.226562 C 91.304688 101.078125 90.789062 100.765625 90.46875 100.285156 C 90.148438 99.808594 89.988281 99.121094 89.988281 98.222656 C 89.988281 98.0625 90.011719 97.757812 90.058594 97.304688 C 89.753906 98.375 89.21875 99.234375 88.457031 99.886719 C 87.683594 100.546875 86.933594 100.875 86.203125 100.875 C 85.460938 100.875 84.867188 100.59375 84.417969 100.03125 C 83.96875 99.476562 83.742188 98.707031 83.742188 97.726562 C 83.742188 96.738281 83.925781 95.773438 84.296875 94.835938 C 84.65625 93.894531 85.210938 93.082031 85.949219 92.398438 C 86.679688 91.707031 87.503906 91.363281 88.421875 91.363281 C 88.8125 91.363281 89.25 91.441406 89.722656 91.601562 C 89.054688 91.773438 88.445312 92.082031 87.890625 92.53125 C 87.34375 92.980469 86.90625 93.492188 86.574219 94.0625 Z M 103.5625 88.9375 L 103.574219 89.144531 C 103.574219 89.570312 103.414062 90.96875 103.09375 93.339844 C 102.773438 95.703125 102.609375 97.679688 102.609375 99.273438 C 102.609375 99.976562 102.648438 100.53125 102.71875 100.921875 C 102.445312 100.945312 102.296875 100.960938 102.273438 100.960938 C 101.765625 100.960938 101.390625 100.84375 101.140625 100.609375 C 100.898438 100.375 100.777344 100 100.777344 99.476562 C 100.777344 98.953125 100.96875 97.355469 101.34375 94.679688 C 101.714844 92.007812 101.898438 90.105469 101.898438 88.960938 C 101.898438 87.820312 101.824219 87.074219 101.671875 86.71875 C 102.03125 86.769531 102.367188 86.910156 102.671875 87.140625 C 102.984375 87.367188 103.21875 87.671875 103.371094 88.058594 C 104.230469 87.601562 105.1875 87.371094 106.238281 87.371094 C 107.285156 87.371094 108.109375 87.691406 108.710938 88.335938 C 109.3125 88.988281 109.617188 89.78125 109.617188 90.722656 C 109.617188 91.929688 109.175781 93.015625 108.300781 93.976562 C 107.425781 94.933594 106.242188 95.414062 104.757812 95.414062 C 104.417969 95.414062 104.109375 95.394531 103.828125 95.351562 L 103.78125 94.8125 C 104.535156 94.8125 105.195312 94.699219 105.757812 94.472656 C 106.320312 94.246094 106.746094 93.949219 107.035156 93.582031 C 107.605469 92.859375 107.890625 92.011719 107.890625 91.046875 C 107.890625 90.351562 107.671875 89.765625 107.226562 89.300781 C 106.785156 88.835938 106.140625 88.601562 105.296875 88.601562 C 104.792969 88.601562 104.214844 88.714844 103.5625 88.9375 Z M 113.351562 94.0625 C 113.023438 94.625 112.769531 95.203125 112.59375 95.796875 C 112.425781 96.386719 112.339844 96.953125 112.339844 97.5 C 112.339844 98.039062 112.460938 98.496094 112.703125 98.875 C 112.941406 99.25 113.289062 99.441406 113.738281 99.441406 C 114.367188 99.441406 114.957031 99.09375 115.511719 98.402344 C 116.058594 97.703125 116.480469 96.863281 116.777344 95.882812 C 117.082031 94.894531 117.234375 93.984375 117.234375 93.148438 C 117.234375 92.3125 117.199219 91.625 117.125 91.085938 C 117.398438 91.0625 117.570312 91.046875 117.632812 91.046875 C 118.589844 91.046875 119.066406 91.539062 119.066406 92.519531 C 119.066406 92.726562 118.933594 93.597656 118.671875 95.125 C 118.398438 96.652344 118.257812 97.871094 118.257812 98.789062 C 118.257812 99.703125 118.433594 100.515625 118.777344 101.226562 C 118.070312 101.078125 117.554688 100.765625 117.234375 100.285156 C 116.914062 99.808594 116.753906 99.121094 116.753906 98.222656 C 116.753906 98.0625 116.777344 97.757812 116.824219 97.304688 C 116.519531 98.375 115.984375 99.234375 115.222656 99.886719 C 114.457031 100.546875 113.707031 100.875 112.96875 100.875 C 112.226562 100.875 111.632812 100.59375 111.183594 100.03125 C 110.734375 99.476562 110.507812 98.707031 110.507812 97.726562 C 110.507812 96.738281 110.691406 95.773438 111.0625 94.835938 C 111.421875 93.894531 111.976562 93.082031 112.714844 92.398438 C 113.453125 91.707031 114.277344 91.363281 115.1875 91.363281 C 115.578125 91.363281 116.011719 91.441406 116.488281 91.601562 C 115.820312 91.773438 115.214844 92.082031 114.667969 92.53125 C 114.113281 92.980469 113.671875 93.492188 113.351562 94.0625 Z M 129.496094 93.328125 C 129.496094 93.84375 129.386719 94.753906 129.171875 96.0625 C 128.953125 97.375 128.84375 98.332031 128.84375 98.933594 C 128.84375 99.527344 128.917969 99.957031 129.0625 100.222656 C 129.207031 100.488281 129.457031 100.714844 129.808594 100.898438 C 129.65625 100.914062 129.449219 100.921875 129.183594 100.921875 C 128.417969 100.921875 127.875 100.777344 127.554688 100.488281 C 127.234375 100.199219 127.074219 99.683594 127.074219 98.945312 C 127.074219 98.527344 127.1875 97.6875 127.410156 96.425781 C 127.636719 95.15625 127.75 94.222656 127.75 93.628906 C 127.75 92.890625 127.523438 92.519531 127.074219 92.519531 C 126.351562 92.519531 125.601562 93.15625 124.828125 94.425781 C 124.058594 95.695312 123.671875 97.226562 123.671875 99.015625 C 123.671875 99.726562 123.710938 100.277344 123.78125 100.671875 C 123.484375 100.695312 123.308594 100.707031 123.25 100.707031 C 122.261719 100.707031 121.769531 100.21875 121.769531 99.246094 C 121.769531 99.023438 121.890625 98.15625 122.128906 96.65625 C 122.363281 95.144531 122.480469 93.941406 122.480469 93.050781 C 122.480469 92.148438 122.382812 91.328125 122.191406 90.578125 C 122.859375 90.835938 123.324219 91.203125 123.589844 91.675781 C 123.851562 92.15625 123.984375 92.703125 123.984375 93.316406 C 123.984375 93.925781 123.917969 94.636719 123.78125 95.449219 C 124.152344 94.179688 124.734375 93.109375 125.53125 92.242188 C 126.316406 91.367188 127.054688 90.929688 127.75 90.929688 C 128.914062 90.929688 129.496094 91.726562 129.496094 93.328125 Z M 137.585938 91.421875 C 137.585938 91.890625 137.496094 92.214844 137.320312 92.398438 C 137.136719 92.578125 136.871094 92.664062 136.523438 92.664062 L 135.308594 92.664062 C 135.257812 92.960938 135.140625 93.660156 134.957031 94.761719 C 134.570312 96.851562 134.378906 98.429688 134.378906 99.5 C 134.378906 100.570312 134.460938 101.28125 134.621094 101.632812 C 133.976562 101.394531 133.519531 101.035156 133.246094 100.5625 C 132.980469 100.078125 132.847656 99.496094 132.847656 98.8125 C 132.847656 98.121094 132.886719 97.46875 132.96875 96.859375 C 133.054688 96.25 133.179688 95.535156 133.328125 94.714844 C 133.492188 93.886719 133.601562 93.226562 133.667969 92.734375 C 133.023438 92.824219 132.394531 93.007812 131.773438 93.28125 C 131.757812 93.09375 131.75 92.929688 131.75 92.785156 C 131.75 92.246094 131.929688 91.882812 132.28125 91.699219 C 132.640625 91.515625 133.160156 91.421875 133.835938 91.421875 C 133.917969 90.585938 133.957031 89.964844 133.957031 89.554688 C 133.957031 89.144531 133.953125 88.8125 133.945312 88.566406 C 133.945312 88.316406 133.945312 88.132812 133.945312 88.011719 C 134.460938 88.089844 134.859375 88.320312 135.140625 88.695312 C 135.421875 89.066406 135.5625 89.582031 135.5625 90.242188 C 135.5625 90.578125 135.53125 90.988281 135.476562 91.46875 C 136.457031 91.46875 137.148438 91.304688 137.550781 90.976562 C 137.574219 91.136719 137.585938 91.285156 137.585938 91.421875 Z M 140.757812 95.449219 C 141.125 94.179688 141.695312 93.109375 142.46875 92.242188 C 143.242188 91.367188 143.964844 90.929688 144.640625 90.929688 C 145.3125 90.929688 145.792969 91.132812 146.074219 91.542969 C 146.355469 91.953125 146.496094 92.511719 146.496094 93.21875 C 146.496094 93.917969 146.386719 94.902344 146.171875 96.171875 C 145.953125 97.449219 145.84375 98.378906 145.84375 98.957031 C 145.84375 99.535156 145.917969 99.957031 146.0625 100.222656 C 146.207031 100.488281 146.453125 100.714844 146.796875 100.898438 C 146.652344 100.914062 146.445312 100.921875 146.183594 100.921875 C 145.460938 100.921875 144.925781 100.773438 144.578125 100.476562 C 144.242188 100.179688 144.070312 99.667969 144.070312 98.945312 C 144.070312 98.527344 144.183594 97.6875 144.410156 96.425781 C 144.632812 95.15625 144.746094 94.222656 144.746094 93.628906 C 144.746094 92.890625 144.484375 92.519531 143.964844 92.519531 C 143.65625 92.519531 143.320312 92.679688 142.953125 93 C 142.582031 93.316406 142.222656 93.746094 141.878906 94.292969 C 141.539062 94.839844 141.253906 95.535156 141.023438 96.378906 C 140.789062 97.214844 140.671875 98.039062 140.671875 98.847656 C 140.671875 99.667969 140.710938 100.277344 140.78125 100.671875 C 140.507812 100.695312 140.355469 100.707031 140.324219 100.707031 C 139.792969 100.707031 139.402344 100.59375 139.152344 100.367188 C 138.898438 100.144531 138.765625 99.789062 138.765625 99.308594 C 138.765625 98.832031 138.867188 97.914062 139.070312 96.546875 C 139.664062 92.359375 139.960938 89.179688 139.960938 87.007812 C 139.960938 86.03125 139.898438 85.371094 139.769531 85.03125 C 140.417969 85.273438 140.878906 85.625 141.140625 86.082031 C 141.40625 86.546875 141.539062 87.183594 141.539062 87.984375 C 141.539062 88.546875 141.429688 89.730469 141.203125 91.53125 C 140.984375 93.332031 140.835938 94.636719 140.757812 95.449219 Z M 153.523438 91.808594 C 152.851562 91.808594 152.277344 92.195312 151.8125 92.964844 C 151.339844 93.746094 151.023438 94.65625 150.871094 95.703125 L 151.34375 95.703125 C 151.9375 95.703125 152.457031 95.617188 152.898438 95.449219 C 153.332031 95.28125 153.667969 95.0625 153.910156 94.796875 C 154.359375 94.273438 154.585938 93.6875 154.585938 93.039062 C 154.585938 92.667969 154.496094 92.371094 154.320312 92.144531 C 154.144531 91.921875 153.878906 91.808594 153.523438 91.808594 Z M 155.898438 98.644531 C 155.386719 99.488281 154.820312 100.078125 154.199219 100.417969 C 153.582031 100.753906 152.859375 100.921875 152.042969 100.921875 C 151.230469 100.921875 150.519531 100.5625 149.90625 99.835938 C 149.296875 99.121094 148.992188 98.109375 148.992188 96.800781 C 148.992188 95.3125 149.394531 93.984375 150.195312 92.820312 C 150.589844 92.257812 151.105469 91.800781 151.742188 91.445312 C 152.375 91.101562 153.074219 90.929688 153.835938 90.929688 C 155.527344 90.929688 156.371094 91.742188 156.371094 93.375 C 156.371094 94.355469 155.992188 95.125 155.234375 95.679688 C 154.472656 96.234375 153.59375 96.511719 152.597656 96.511719 C 151.929688 96.511719 151.328125 96.449219 150.800781 96.328125 C 150.792969 96.441406 150.789062 96.613281 150.789062 96.847656 C 150.789062 98.839844 151.378906 99.835938 152.558594 99.835938 C 153.667969 99.835938 154.574219 99.289062 155.273438 98.1875 C 155.691406 98.242188 155.898438 98.394531 155.898438 98.644531 Z M 155.5625 89.664062 C 155.554688 89.78125 155.492188 89.898438 155.382812 90.011719 C 155.277344 90.117188 155.15625 90.183594 155.019531 90.21875 C 154.617188 89.710938 154.101562 89.210938 153.464844 88.722656 C 152.828125 88.222656 152.183594 87.875 151.523438 87.671875 C 151.546875 87.085938 151.820312 86.625 152.34375 86.285156 C 152.9375 86.519531 153.554688 86.984375 154.1875 87.683594 C 154.824219 88.375 155.28125 89.035156 155.5625 89.664062 Z M 160.542969 95.183594 C 160.945312 93.722656 161.429688 92.644531 162 91.953125 C 162.570312 91.261719 163.101562 90.914062 163.59375 90.914062 C 164.082031 90.914062 164.449219 91.097656 164.6875 91.457031 C 164.9375 91.828125 165.0625 92.292969 165.0625 92.859375 C 165.0625 93.421875 164.917969 93.90625 164.628906 94.316406 C 164.332031 94.726562 163.902344 94.929688 163.339844 94.929688 C 163.164062 94.929688 163.019531 94.917969 162.917969 94.894531 C 163.304688 94.339844 163.496094 93.777344 163.496094 93.207031 C 163.496094 92.804688 163.332031 92.605469 163 92.605469 C 162.742188 92.605469 162.46875 92.753906 162.179688 93.050781 C 161.882812 93.355469 161.601562 93.777344 161.335938 94.316406 C 161.0625 94.863281 160.839844 95.566406 160.664062 96.425781 C 160.476562 97.292969 160.382812 98.230469 160.382812 99.234375 C 160.382812 99.347656 160.414062 99.824219 160.46875 100.671875 C 160.179688 100.695312 160.011719 100.707031 159.960938 100.707031 C 158.972656 100.707031 158.480469 100.21875 158.480469 99.246094 C 158.480469 99.023438 158.601562 98.15625 158.84375 96.65625 C 159.074219 95.144531 159.191406 93.941406 159.191406 93.050781 C 159.191406 92.148438 159.09375 91.328125 158.902344 90.578125 C 159.570312 90.835938 160.035156 91.203125 160.300781 91.675781 C 160.566406 92.15625 160.699219 92.71875 160.699219 93.351562 C 160.699219 93.984375 160.644531 94.597656 160.542969 95.183594 Z M 170.488281 91.808594 C 169.8125 91.808594 169.238281 92.195312 168.765625 92.964844 C 168.296875 93.746094 167.988281 94.65625 167.835938 95.703125 L 168.304688 95.703125 C 168.898438 95.703125 169.417969 95.617188 169.859375 95.449219 C 170.296875 95.28125 170.632812 95.0625 170.875 94.796875 C 171.324219 94.273438 171.546875 93.6875 171.546875 93.039062 C 171.546875 92.667969 171.460938 92.371094 171.285156 92.144531 C 171.105469 91.921875 170.84375 91.808594 170.488281 91.808594 Z M 172.863281 98.644531 C 172.347656 99.488281 171.78125 100.078125 171.164062 100.417969 C 170.542969 100.753906 169.824219 100.921875 169.003906 100.921875 C 168.195312 100.921875 167.480469 100.5625 166.871094 99.835938 C 166.261719 99.121094 165.953125 98.109375 165.953125 96.800781 C 165.953125 95.3125 166.355469 93.984375 167.160156 92.820312 C 167.554688 92.257812 168.070312 91.800781 168.703125 91.445312 C 169.339844 91.101562 170.039062 90.929688 170.800781 90.929688 C 172.488281 90.929688 173.332031 91.742188 173.332031 93.375 C 173.332031 94.355469 172.957031 95.125 172.199219 95.679688 C 171.4375 96.234375 170.554688 96.511719 169.558594 96.511719 C 168.890625 96.511719 168.292969 96.449219 167.761719 96.328125 C 167.753906 96.441406 167.75 96.613281 167.75 96.847656 C 167.75 98.839844 168.34375 99.835938 169.523438 99.835938 C 170.632812 99.835938 171.539062 99.289062 172.234375 98.1875 C 172.65625 98.242188 172.863281 98.394531 172.863281 98.644531 Z M 172.863281 98.644531 " />
    <path style=" stroke:none;fill-rule:nonzero;fill:rgb(11.372549%,11.372549%,10.588235%);fill-opacity:1;" d="M 43.703125 98.300781 L 43.703125 98.269531 C 43.375 97.695312 42.832031 97.277344 42.195312 97.105469 L 42.136719 97.105469 C 41.789062 97 41.429688 96.933594 41.066406 96.90625 C 40.085938 96.773438 39.148438 96.425781 38.316406 95.886719 C 38.171875 95.800781 37.980469 95.84375 37.886719 95.984375 C 37.789062 96.125 37.820312 96.316406 37.957031 96.417969 C 38.230469 96.59375 38.515625 96.753906 38.8125 96.894531 C 38.8125 96.9375 38.773438 96.976562 38.761719 97.023438 C 38.371094 98.402344 39.164062 99.835938 40.535156 100.238281 C 40.785156 100.308594 41.039062 100.34375 41.296875 100.34375 C 42.082031 100.347656 42.820312 99.988281 43.304688 99.367188 C 43.339844 99.796875 43.3125 100.230469 43.226562 100.652344 C 43.191406 100.734375 43.195312 100.828125 43.234375 100.910156 C 43.273438 100.992188 43.34375 101.054688 43.429688 101.078125 C 43.460938 101.085938 43.496094 101.085938 43.53125 101.078125 C 43.667969 101.078125 43.789062 100.992188 43.835938 100.863281 C 43.96875 100.289062 44.003906 99.695312 43.929688 99.109375 C 43.910156 98.828125 43.832031 98.550781 43.703125 98.300781 Z M 41.789062 97.664062 C 41.804688 97.734375 41.804688 97.8125 41.789062 97.886719 C 41.707031 98.183594 41.394531 98.359375 41.097656 98.273438 C 40.796875 98.191406 40.625 97.878906 40.707031 97.582031 C 40.71875 97.554688 40.730469 97.53125 40.746094 97.507812 L 41.003906 97.539062 C 41.269531 97.558594 41.539062 97.601562 41.796875 97.667969 Z M 42.191406 99.480469 C 41.730469 99.71875 41.199219 99.765625 40.703125 99.617188 C 39.664062 99.316406 39.0625 98.234375 39.359375 97.191406 L 39.359375 97.140625 C 39.597656 97.234375 39.839844 97.3125 40.085938 97.375 L 40.085938 97.402344 C 39.949219 97.835938 40.070312 98.3125 40.398438 98.625 C 40.726562 98.941406 41.203125 99.046875 41.632812 98.890625 C 42.0625 98.738281 42.367188 98.355469 42.417969 97.902344 C 42.675781 98.03125 42.890625 98.226562 43.050781 98.46875 C 42.90625 98.898438 42.601562 99.261719 42.199219 99.480469 Z M 53.78125 97.015625 C 53.78125 96.96875 53.746094 96.929688 53.730469 96.882812 C 54.023438 96.746094 54.3125 96.585938 54.585938 96.410156 C 54.71875 96.304688 54.75 96.117188 54.65625 95.976562 C 54.5625 95.835938 54.371094 95.792969 54.226562 95.878906 C 53.394531 96.417969 52.457031 96.765625 51.476562 96.898438 C 51.109375 96.925781 50.75 96.992188 50.398438 97.097656 L 50.347656 97.097656 C 49.703125 97.265625 49.15625 97.691406 48.832031 98.269531 L 48.832031 98.292969 C 48.699219 98.550781 48.621094 98.835938 48.601562 99.125 C 48.53125 99.710938 48.5625 100.304688 48.699219 100.878906 C 48.742188 101.007812 48.867188 101.097656 49.003906 101.097656 C 49.109375 101.097656 49.207031 101.046875 49.269531 100.964844 C 49.332031 100.878906 49.347656 100.769531 49.3125 100.667969 C 49.222656 100.25 49.195312 99.816406 49.230469 99.386719 C 49.710938 100.003906 50.453125 100.367188 51.234375 100.359375 C 51.492188 100.359375 51.75 100.324219 52 100.253906 C 52.664062 100.0625 53.226562 99.613281 53.5625 99.007812 C 53.898438 98.398438 53.976562 97.683594 53.78125 97.015625 Z M 51.515625 97.539062 L 51.773438 97.507812 C 51.785156 97.53125 51.796875 97.554688 51.808594 97.582031 C 51.890625 97.875 51.722656 98.179688 51.429688 98.265625 C 51.25 98.320312 51.054688 98.28125 50.914062 98.15625 C 50.773438 98.035156 50.703125 97.847656 50.730469 97.664062 C 50.992188 97.597656 51.253906 97.558594 51.519531 97.539062 Z M 51.828125 99.617188 C 51.332031 99.765625 50.796875 99.71875 50.339844 99.480469 C 49.9375 99.261719 49.628906 98.898438 49.484375 98.460938 C 49.640625 98.222656 49.859375 98.03125 50.117188 97.902344 C 50.121094 97.957031 50.132812 98.007812 50.144531 98.0625 C 50.296875 98.570312 50.765625 98.917969 51.296875 98.914062 C 51.664062 98.90625 52.007812 98.734375 52.226562 98.441406 C 52.449219 98.148438 52.523438 97.769531 52.429688 97.414062 L 52.429688 97.390625 C 52.675781 97.324219 52.917969 97.246094 53.15625 97.152344 L 53.15625 97.203125 C 53.445312 98.238281 52.855469 99.3125 51.828125 99.617188 Z M 51.828125 99.617188 " />
    <path style=" stroke:none;fill-rule:nonzero;fill:rgb(11.372549%,11.372549%,10.588235%);fill-opacity:1;" d="M 44.695312 97.796875 C 44.628906 96.832031 43.84375 96.222656 42.496094 96.117188 C 41.78125 96.027344 41.101562 95.78125 40.492188 95.398438 C 40.34375 95.296875 40.148438 95.339844 40.046875 95.484375 C 39.953125 95.632812 39.992188 95.832031 40.140625 95.929688 C 40.835938 96.375 41.625 96.65625 42.449219 96.757812 C 43.023438 96.796875 44 97 44.0625 97.835938 C 44.070312 98.007812 44.210938 98.136719 44.382812 98.136719 L 44.402344 98.136719 C 44.578125 98.125 44.710938 97.972656 44.695312 97.796875 Z M 50.25 96.757812 C 51.070312 96.65625 51.859375 96.375 52.558594 95.929688 C 52.707031 95.832031 52.746094 95.632812 52.648438 95.484375 C 52.550781 95.339844 52.351562 95.296875 52.203125 95.398438 C 51.59375 95.785156 50.910156 96.035156 50.195312 96.132812 C 48.867188 96.234375 48.058594 96.84375 47.996094 97.808594 C 47.988281 97.894531 48.015625 97.976562 48.074219 98.042969 C 48.128906 98.105469 48.210938 98.144531 48.292969 98.148438 L 48.316406 98.148438 C 48.484375 98.148438 48.625 98.019531 48.636719 97.851562 C 48.695312 96.988281 49.6875 96.804688 50.25 96.757812 Z M 39.699219 94.527344 C 39.769531 94.621094 39.886719 94.667969 40 94.648438 C 40.117188 94.632812 40.210938 94.550781 40.253906 94.441406 C 40.292969 94.332031 40.269531 94.210938 40.195312 94.121094 L 38.828125 92.445312 C 38.757812 92.351562 38.640625 92.304688 38.527344 92.324219 C 38.410156 92.34375 38.316406 92.421875 38.273438 92.53125 C 38.234375 92.640625 38.257812 92.765625 38.335938 92.851562 Z M 41.132812 93.601562 C 41.183594 93.722656 41.300781 93.804688 41.433594 93.804688 C 41.539062 93.804688 41.632812 93.753906 41.695312 93.667969 C 41.753906 93.582031 41.769531 93.476562 41.734375 93.378906 L 41.132812 91.804688 C 41.066406 91.640625 40.882812 91.554688 40.714844 91.621094 C 40.550781 91.683594 40.46875 91.867188 40.53125 92.035156 Z M 42.84375 93.648438 C 43.015625 93.648438 43.152344 93.519531 43.167969 93.351562 L 43.273438 91.992188 C 43.28125 91.90625 43.253906 91.820312 43.199219 91.757812 C 43.140625 91.691406 43.0625 91.652344 42.976562 91.644531 C 42.890625 91.636719 42.808594 91.664062 42.742188 91.71875 C 42.675781 91.773438 42.636719 91.855469 42.632812 91.941406 L 42.523438 93.304688 C 42.519531 93.394531 42.550781 93.480469 42.609375 93.546875 C 42.671875 93.609375 42.757812 93.648438 42.84375 93.648438 Z M 42.84375 93.648438 " />
    <path style=" stroke:none;fill-rule:nonzero;fill:rgb(11.372549%,11.372549%,10.588235%);fill-opacity:1;" d="M 65.644531 104.683594 C 63.976562 104.15625 60.050781 104.203125 56.859375 104.347656 C 59 101.648438 59 99.039062 58.617188 97.8125 C 58.328125 96.894531 57.878906 94.574219 58.453125 93.671875 C 58.558594 93.488281 58.746094 93.367188 58.957031 93.34375 C 59.710938 93.246094 59.84375 92.460938 59.953125 91.835938 C 59.980469 91.613281 60.03125 91.394531 60.101562 91.179688 C 60.230469 90.949219 60.410156 90.75 60.625 90.59375 C 61.222656 90.117188 61.691406 89.492188 61.984375 88.785156 C 62.664062 87.113281 61.753906 86.289062 61.714844 86.253906 C 61.679688 86.226562 61.636719 86.207031 61.59375 86.195312 L 61.535156 86.195312 C 60.835938 86.015625 60.09375 86.128906 59.476562 86.507812 C 59.1875 86.648438 58.828125 86.820312 58.296875 87.042969 C 57.15625 87.617188 55.773438 87.390625 54.875 86.480469 C 52.953125 84.632812 51.59375 84.097656 46.289062 84.097656 C 40.980469 84.097656 39.640625 84.636719 37.734375 86.480469 C 36.839844 87.390625 35.457031 87.617188 34.3125 87.042969 C 33.914062 86.875 33.523438 86.699219 33.132812 86.507812 C 32.519531 86.128906 31.777344 86.015625 31.078125 86.195312 L 31.015625 86.195312 C 30.972656 86.207031 30.933594 86.226562 30.898438 86.253906 C 30.859375 86.289062 29.945312 87.109375 30.625 88.785156 C 30.921875 89.492188 31.386719 90.117188 31.988281 90.59375 C 32.203125 90.75 32.378906 90.949219 32.507812 91.179688 C 32.554688 91.402344 32.578125 91.628906 32.582031 91.855469 C 32.6875 92.484375 32.820312 93.261719 33.578125 93.359375 C 33.789062 93.382812 33.976562 93.507812 34.082031 93.6875 C 34.65625 94.59375 34.207031 96.910156 33.914062 97.828125 C 33.527344 99.054688 33.542969 101.679688 35.671875 104.363281 C 32.484375 104.21875 28.558594 104.171875 26.890625 104.703125 C 26.71875 104.757812 26.628906 104.9375 26.683594 105.105469 C 26.734375 105.273438 26.917969 105.367188 27.085938 105.3125 C 28.835938 104.757812 33.5 104.886719 36.144531 105.03125 L 36.25 105.03125 L 36.53125 105.328125 C 33.246094 105.375 31.015625 105.601562 29.898438 106 C 29.789062 106.039062 29.707031 106.132812 29.6875 106.246094 C 29.664062 106.363281 29.707031 106.480469 29.796875 106.554688 C 29.886719 106.628906 30.007812 106.648438 30.117188 106.605469 C 31.222656 106.207031 33.667969 105.984375 37.199219 105.960938 C 37.351562 106.085938 37.503906 106.210938 37.65625 106.335938 C 34.890625 106.488281 30.386719 106.851562 28.675781 107.617188 C 28.53125 107.699219 28.46875 107.875 28.535156 108.03125 C 28.601562 108.183594 28.773438 108.257812 28.933594 108.203125 C 30.71875 107.421875 35.851562 107.074219 38.4375 106.945312 L 38.863281 107.25 L 38.90625 107.28125 C 36.21875 107.542969 34.378906 107.878906 33.4375 108.289062 C 33.289062 108.367188 33.226562 108.546875 33.292969 108.703125 C 33.359375 108.855469 33.535156 108.929688 33.695312 108.875 C 34.578125 108.488281 36.453125 108.152344 39.132812 107.902344 C 39.121094 108.691406 39.21875 109.480469 39.425781 110.246094 C 40.121094 112.09375 41.074219 112.546875 42.1875 112.640625 C 42.347656 112.941406 42.570312 113.203125 42.835938 113.414062 C 42.238281 113.953125 41.75 114.601562 41.386719 115.324219 C 41.324219 115.492188 41.40625 115.675781 41.570312 115.742188 C 41.734375 115.804688 41.921875 115.722656 41.984375 115.554688 C 42.101562 115.257812 42.449219 114.703125 43.394531 113.765625 C 43.667969 113.902344 43.953125 114.015625 44.25 114.097656 C 44.039062 114.5625 43.90625 115.058594 43.855469 115.566406 C 43.851562 115.648438 43.878906 115.734375 43.9375 115.796875 C 43.992188 115.859375 44.074219 115.898438 44.160156 115.902344 C 44.328125 115.902344 44.46875 115.769531 44.480469 115.597656 C 44.535156 115.128906 44.667969 114.671875 44.867188 114.242188 C 45.796875 114.398438 46.738281 114.398438 47.664062 114.242188 C 47.867188 114.671875 47.996094 115.128906 48.054688 115.597656 C 48.0625 115.769531 48.203125 115.902344 48.375 115.902344 C 48.460938 115.898438 48.539062 115.859375 48.597656 115.796875 C 48.65625 115.734375 48.683594 115.648438 48.679688 115.566406 C 48.632812 115.058594 48.5 114.5625 48.296875 114.09375 C 48.59375 114.011719 48.878906 113.898438 49.152344 113.761719 C 50.097656 114.695312 50.4375 115.253906 50.5625 115.550781 C 50.625 115.71875 50.8125 115.800781 50.976562 115.734375 C 51.140625 115.671875 51.222656 115.484375 51.160156 115.320312 C 50.800781 114.601562 50.308594 113.953125 49.710938 113.410156 C 49.976562 113.199219 50.199219 112.9375 50.359375 112.636719 C 51.472656 112.539062 52.425781 112.09375 53.117188 110.246094 C 53.320312 109.484375 53.410156 108.699219 53.398438 107.914062 C 56.078125 108.164062 57.953125 108.5 58.835938 108.890625 C 58.941406 108.945312 59.070312 108.9375 59.171875 108.867188 C 59.269531 108.800781 59.320312 108.679688 59.304688 108.5625 C 59.289062 108.445312 59.207031 108.34375 59.09375 108.304688 C 58.144531 107.875 56.269531 107.546875 53.53125 107.285156 L 53.875 107.046875 L 54.007812 106.953125 C 56.574219 107.078125 61.789062 107.425781 63.597656 108.234375 C 63.753906 108.289062 63.929688 108.214844 63.996094 108.0625 C 64.0625 107.90625 64 107.726562 63.851562 107.648438 C 62.117188 106.886719 57.605469 106.527344 54.84375 106.367188 C 55.003906 106.242188 55.164062 106.117188 55.316406 105.988281 C 58.859375 106.011719 61.304688 106.234375 62.410156 106.636719 C 62.578125 106.6875 62.753906 106.601562 62.8125 106.4375 C 62.875 106.277344 62.789062 106.09375 62.628906 106.03125 C 61.515625 105.628906 59.289062 105.402344 56 105.355469 L 56.277344 105.0625 L 56.386719 105.0625 C 59.015625 104.929688 63.695312 104.789062 65.445312 105.34375 C 65.625 105.398438 65.816406 105.296875 65.875 105.117188 C 65.929688 104.933594 65.828125 104.742188 65.644531 104.683594 Z M 47.683594 112.773438 C 47.59375 112.617188 47.398438 112.566406 47.242188 112.65625 C 47.089844 112.742188 47.039062 112.9375 47.125 113.09375 C 47.195312 113.207031 47.292969 113.390625 47.398438 113.605469 C 46.660156 113.714844 45.90625 113.714844 45.167969 113.605469 C 45.316406 113.304688 45.4375 113.097656 45.441406 113.09375 C 45.53125 112.9375 45.476562 112.742188 45.324219 112.65625 C 45.171875 112.566406 44.976562 112.617188 44.886719 112.773438 C 44.886719 112.796875 44.707031 113.085938 44.515625 113.484375 C 43.929688 113.355469 43.398438 113.058594 42.984375 112.625 L 44.023438 112.625 C 44.960938 112.625 45.820312 112.109375 46.265625 111.285156 C 46.71875 112.113281 47.585938 112.625 48.53125 112.621094 L 49.570312 112.621094 C 49.15625 113.054688 48.621094 113.351562 48.039062 113.476562 C 47.84375 113.09375 47.683594 112.8125 47.664062 112.78125 Z M 54.996094 105.390625 L 54.960938 105.414062 C 54.601562 105.714844 54.203125 106.007812 53.816406 106.273438 L 53.480469 106.273438 C 53.539062 105.539062 53.675781 104.882812 53.9375 104.683594 C 54.082031 104.574219 54.105469 104.367188 53.996094 104.226562 C 53.882812 104.085938 53.679688 104.0625 53.539062 104.171875 C 53.109375 104.527344 52.921875 105.300781 52.839844 106.238281 L 52.578125 106.238281 C 52.492188 106.234375 52.410156 106.265625 52.347656 106.324219 C 52.285156 106.382812 52.25 106.464844 52.25 106.550781 C 52.246094 106.726562 52.386719 106.875 52.5625 106.878906 L 52.800781 106.878906 L 52.800781 107.195312 L 52.726562 107.195312 C 52.550781 107.183594 52.398438 107.3125 52.378906 107.484375 C 52.363281 107.664062 52.492188 107.816406 52.667969 107.832031 L 52.757812 107.832031 C 52.773438 108.558594 52.691406 109.285156 52.519531 109.992188 C 51.917969 111.597656 51.195312 111.933594 50.144531 111.984375 L 48.53125 111.984375 C 47.472656 111.984375 46.609375 111.136719 46.59375 110.078125 C 46.742188 109.9375 46.90625 109.816406 47.085938 109.71875 C 47.515625 109.445312 48.144531 109.070312 47.914062 108.523438 C 47.832031 108.335938 47.886719 108.246094 48.625 107.746094 L 48.890625 107.5625 C 49.210938 107.390625 49.421875 107.070312 49.449219 106.707031 C 49.429688 106.429688 49.277344 106.175781 49.042969 106.023438 C 48.898438 105.9375 48.710938 105.976562 48.617188 106.117188 C 48.53125 106.261719 48.570312 106.445312 48.703125 106.546875 C 48.738281 106.570312 48.816406 106.644531 48.820312 106.703125 C 48.824219 106.765625 48.746094 106.878906 48.539062 107.023438 L 48.273438 107.207031 C 47.574219 107.679688 47.027344 108.0625 47.332031 108.734375 C 47.296875 108.84375 46.953125 109.050781 46.761719 109.164062 C 46.59375 109.261719 46.433594 109.371094 46.28125 109.492188 C 46.125 109.371094 45.964844 109.261719 45.796875 109.164062 C 45.59375 109.050781 45.402344 108.917969 45.226562 108.765625 C 45.53125 108.050781 44.980469 107.679688 44.289062 107.203125 L 44.023438 107.019531 C 43.816406 106.875 43.738281 106.757812 43.738281 106.699219 C 43.738281 106.640625 43.816406 106.566406 43.851562 106.539062 C 43.988281 106.441406 44.023438 106.25 43.933594 106.109375 C 43.839844 105.964844 43.652344 105.917969 43.503906 106 C 43.269531 106.152344 43.117188 106.40625 43.097656 106.6875 C 43.125 107.046875 43.335938 107.371094 43.65625 107.542969 L 43.921875 107.726562 C 44.664062 108.226562 44.714844 108.316406 44.632812 108.503906 C 44.402344 109.050781 45.015625 109.421875 45.460938 109.695312 C 45.632812 109.796875 45.796875 109.90625 45.953125 110.027344 C 45.949219 111.09375 45.082031 111.960938 44.015625 111.960938 L 43.347656 111.960938 C 41.753906 112 40.78125 112.019531 40.019531 109.96875 C 39.847656 109.257812 39.765625 108.535156 39.78125 107.808594 L 39.867188 107.808594 C 40.046875 107.792969 40.179688 107.636719 40.164062 107.457031 C 40.148438 107.28125 39.992188 107.148438 39.8125 107.164062 L 39.753906 107.164062 L 39.753906 106.847656 L 39.992188 106.847656 C 40.171875 106.847656 40.3125 106.707031 40.3125 106.527344 C 40.3125 106.351562 40.171875 106.207031 39.992188 106.207031 L 39.734375 106.207031 C 39.652344 105.269531 39.484375 104.496094 39.035156 104.140625 C 38.886719 104.019531 38.664062 104.042969 38.542969 104.195312 C 38.421875 104.34375 38.445312 104.5625 38.59375 104.683594 C 38.859375 104.894531 38.984375 105.539062 39.046875 106.273438 L 38.640625 106.273438 C 38.277344 106 37.914062 105.710938 37.582031 105.414062 C 37.5625 105.394531 37.539062 105.375 37.515625 105.355469 C 37.40625 105.257812 37.296875 105.160156 37.191406 105.0625 L 38.1875 105.125 L 38.214844 105.125 C 38.390625 105.132812 38.539062 104.996094 38.546875 104.816406 C 38.554688 104.640625 38.417969 104.492188 38.238281 104.484375 C 38.238281 104.484375 37.570312 104.433594 36.53125 104.375 C 34.203125 101.730469 34.140625 99.160156 34.511719 97.996094 C 34.511719 97.960938 35.507812 94.738281 34.609375 93.320312 C 34.402344 92.988281 34.058594 92.761719 33.667969 92.710938 C 33.402344 92.675781 33.316406 92.28125 33.242188 91.730469 C 33.203125 91.460938 33.140625 91.199219 33.050781 90.945312 C 32.890625 90.613281 32.652344 90.328125 32.355469 90.109375 C 31.828125 89.699219 31.421875 89.15625 31.164062 88.539062 C 30.738281 87.53125 31.066406 86.976562 31.210938 86.796875 C 31.523438 86.769531 31.835938 86.851562 32.09375 87.027344 C 32.125 87.054688 35.3125 89.386719 36.710938 89.386719 L 36.859375 89.386719 C 35.574219 90.304688 34.824219 91.484375 34.824219 92.632812 C 34.824219 92.8125 34.964844 92.953125 35.144531 92.953125 C 35.320312 92.953125 35.464844 92.8125 35.464844 92.632812 C 35.464844 91.429688 36.578125 90.113281 38.300781 89.273438 C 38.96875 89.171875 39.617188 88.957031 40.214844 88.632812 C 40.320312 88.578125 40.382812 88.476562 40.386719 88.359375 C 40.390625 88.242188 40.328125 88.132812 40.226562 88.074219 C 40.128906 88.015625 40.003906 88.015625 39.902344 88.074219 C 38.898438 88.570312 37.789062 88.800781 36.671875 88.75 C 36.136719 88.75 35.113281 88.234375 34.164062 87.660156 C 35.515625 88.265625 37.101562 87.972656 38.140625 86.921875 C 39.851562 85.285156 40.917969 84.71875 46.265625 84.71875 C 51.617188 84.71875 52.683594 85.289062 54.390625 86.921875 C 55.042969 87.582031 55.929688 87.960938 56.859375 87.96875 C 57.363281 87.960938 57.863281 87.859375 58.332031 87.675781 C 57.386719 88.246094 56.363281 88.757812 55.835938 88.757812 C 54.71875 88.8125 53.605469 88.578125 52.601562 88.082031 C 52.445312 88 52.253906 88.058594 52.171875 88.210938 C 52.085938 88.363281 52.136719 88.554688 52.289062 88.644531 C 52.890625 88.96875 53.542969 89.1875 54.21875 89.289062 C 55.929688 90.144531 57.054688 91.429688 57.054688 92.648438 C 57.054688 92.828125 57.195312 92.972656 57.375 92.972656 C 57.550781 92.972656 57.695312 92.828125 57.695312 92.648438 C 57.695312 91.496094 56.9375 90.320312 55.660156 89.40625 L 55.847656 89.40625 C 57.246094 89.40625 60.429688 87.070312 60.460938 87.042969 C 60.71875 86.867188 61.03125 86.785156 61.34375 86.8125 C 61.484375 86.996094 61.789062 87.554688 61.382812 88.558594 C 61.132812 89.175781 60.722656 89.714844 60.195312 90.125 C 59.898438 90.34375 59.660156 90.632812 59.5 90.960938 C 59.410156 91.21875 59.347656 91.480469 59.3125 91.75 C 59.210938 92.316406 59.132812 92.695312 58.882812 92.726562 C 58.484375 92.777344 58.128906 93.003906 57.921875 93.347656 C 57.019531 94.761719 58.007812 97.992188 58.019531 98.023438 C 58.390625 99.1875 58.328125 101.757812 56 104.402344 C 54.976562 104.457031 54.289062 104.507812 54.289062 104.507812 C 54.113281 104.515625 53.976562 104.664062 53.984375 104.84375 C 53.988281 105.019531 54.140625 105.15625 54.316406 105.152344 L 54.34375 105.152344 L 55.335938 105.085938 C 55.25 105.1875 55.117188 105.289062 54.996094 105.390625 Z M 54.996094 105.390625 " />
    <path style=" stroke:none;fill-rule:nonzero;fill:rgb(11.372549%,11.372549%,10.588235%);fill-opacity:1;" d="M 52.585938 94.648438 C 52.679688 94.648438 52.773438 94.601562 52.832031 94.527344 L 54.195312 92.851562 C 54.273438 92.765625 54.296875 92.640625 54.253906 92.53125 C 54.214844 92.421875 54.117188 92.34375 54.003906 92.324219 C 53.886719 92.304688 53.773438 92.351562 53.699219 92.445312 L 52.335938 94.121094 C 52.257812 94.21875 52.242188 94.351562 52.296875 94.460938 C 52.347656 94.570312 52.460938 94.640625 52.585938 94.644531 Z M 51 93.785156 C 51.039062 93.789062 51.078125 93.789062 51.117188 93.785156 C 51.25 93.785156 51.367188 93.703125 51.414062 93.578125 L 52.019531 92.003906 C 52.082031 91.839844 52 91.652344 51.835938 91.589844 C 51.671875 91.527344 51.484375 91.609375 51.421875 91.773438 L 50.816406 93.347656 C 50.78125 93.429688 50.777344 93.523438 50.8125 93.605469 C 50.847656 93.6875 50.917969 93.753906 51 93.785156 Z M 49.6875 93.652344 C 49.773438 93.644531 49.851562 93.605469 49.90625 93.539062 C 49.964844 93.476562 49.992188 93.390625 49.984375 93.304688 L 49.875 91.941406 C 49.863281 91.765625 49.707031 91.632812 49.53125 91.644531 C 49.351562 91.660156 49.21875 91.8125 49.234375 91.992188 L 49.34375 93.355469 C 49.347656 93.441406 49.390625 93.519531 49.453125 93.578125 C 49.519531 93.632812 49.601562 93.65625 49.6875 93.652344 Z M 49.6875 93.652344 " />
    <path style=" stroke:none;fill-rule:nonzero;fill:rgb(11.372549%,11.372549%,10.588235%);fill-opacity:1;" d="M 41.640625 108.464844 C 41.640625 108.714844 41.4375 108.914062 41.191406 108.914062 C 40.941406 108.914062 40.742188 108.714844 40.742188 108.464844 C 40.742188 108.21875 40.941406 108.015625 41.191406 108.015625 C 41.4375 108.015625 41.640625 108.21875 41.640625 108.464844 Z M 41.640625 108.464844 " />
    <path style=" stroke:none;fill-rule:nonzero;fill:rgb(11.372549%,11.372549%,10.588235%);fill-opacity:1;" d="M 41.789062 109.992188 C 41.789062 110.242188 41.589844 110.441406 41.339844 110.441406 C 41.09375 110.441406 40.890625 110.242188 40.890625 109.992188 C 40.890625 109.742188 41.09375 109.542969 41.339844 109.542969 C 41.589844 109.542969 41.789062 109.742188 41.789062 109.992188 Z M 41.789062 109.992188 " />
    <path style=" stroke:none;fill-rule:nonzero;fill:rgb(11.372549%,11.372549%,10.588235%);fill-opacity:1;" d="M 42.960938 110.996094 C 42.960938 111.246094 42.761719 111.445312 42.511719 111.445312 C 42.265625 111.445312 42.0625 111.246094 42.0625 110.996094 C 42.0625 110.75 42.265625 110.546875 42.511719 110.546875 C 42.761719 110.546875 42.960938 110.75 42.960938 110.996094 Z M 42.960938 110.996094 " />
    <path style=" stroke:none;fill-rule:nonzero;fill:rgb(11.372549%,11.372549%,10.588235%);fill-opacity:1;" d="M 43.355469 109.4375 C 43.355469 109.683594 43.152344 109.886719 42.90625 109.886719 C 42.65625 109.886719 42.457031 109.683594 42.457031 109.4375 C 42.457031 109.1875 42.65625 108.988281 42.90625 108.988281 C 43.152344 108.988281 43.355469 109.1875 43.355469 109.4375 Z M 43.355469 109.4375 " />
    <path style=" stroke:none;fill-rule:nonzero;fill:rgb(11.372549%,11.372549%,10.588235%);fill-opacity:1;" d="M 44.601562 110.222656 C 44.601562 110.472656 44.402344 110.671875 44.15625 110.671875 C 43.90625 110.671875 43.703125 110.472656 43.703125 110.222656 C 43.703125 109.976562 43.90625 109.773438 44.15625 109.773438 C 44.402344 109.773438 44.601562 109.976562 44.601562 110.222656 Z M 44.601562 110.222656 " />
    <path style=" stroke:none;fill-rule:nonzero;fill:rgb(11.372549%,11.372549%,10.588235%);fill-opacity:1;" d="M 51.792969 108.464844 C 51.792969 108.714844 51.59375 108.914062 51.34375 108.914062 C 51.09375 108.914062 50.894531 108.714844 50.894531 108.464844 C 50.894531 108.21875 51.09375 108.015625 51.34375 108.015625 C 51.59375 108.015625 51.792969 108.21875 51.792969 108.464844 Z M 51.792969 108.464844 " />
    <path style=" stroke:none;fill-rule:nonzero;fill:rgb(11.372549%,11.372549%,10.588235%);fill-opacity:1;" d="M 51.640625 109.992188 C 51.640625 110.242188 51.441406 110.441406 51.195312 110.441406 C 50.945312 110.441406 50.746094 110.242188 50.746094 109.992188 C 50.746094 109.742188 50.945312 109.542969 51.195312 109.542969 C 51.441406 109.542969 51.640625 109.742188 51.640625 109.992188 Z M 51.640625 109.992188 " />
    <path style=" stroke:none;fill-rule:nonzero;fill:rgb(11.372549%,11.372549%,10.588235%);fill-opacity:1;" d="M 50.46875 110.996094 C 50.46875 111.246094 50.269531 111.445312 50.023438 111.445312 C 49.773438 111.445312 49.574219 111.246094 49.574219 110.996094 C 49.574219 110.75 49.773438 110.546875 50.023438 110.546875 C 50.269531 110.546875 50.46875 110.75 50.46875 110.996094 Z M 50.46875 110.996094 " />
    <path style=" stroke:none;fill-rule:nonzero;fill:rgb(11.372549%,11.372549%,10.588235%);fill-opacity:1;" d="M 50.078125 109.4375 C 50.078125 109.683594 49.875 109.886719 49.628906 109.886719 C 49.382812 109.886719 49.179688 109.683594 49.179688 109.4375 C 49.179688 109.1875 49.382812 108.988281 49.628906 108.988281 C 49.875 108.988281 50.078125 109.1875 50.078125 109.4375 Z M 50.078125 109.4375 " />
    <path style=" stroke:none;fill-rule:nonzero;fill:rgb(11.372549%,11.372549%,10.588235%);fill-opacity:1;" d="M 48.828125 110.222656 C 48.828125 110.472656 48.628906 110.671875 48.378906 110.671875 C 48.132812 110.671875 47.929688 110.472656 47.929688 110.222656 C 47.929688 109.976562 48.132812 109.773438 48.378906 109.773438 C 48.628906 109.773438 48.828125 109.976562 48.828125 110.222656 Z M 48.828125 110.222656 " />
    <path style=" stroke:none;fill-rule:nonzero;fill:rgb(11.372549%,11.372549%,10.588235%);fill-opacity:1;" d="M 47.789062 101.050781 C 47.703125 101.042969 47.621094 101.070312 47.554688 101.125 C 47.492188 101.179688 47.449219 101.257812 47.445312 101.34375 C 47.320312 102.222656 46.90625 103.035156 46.265625 103.648438 C 45.628906 103.035156 45.214844 102.21875 45.101562 101.339844 C 45.085938 101.164062 44.929688 101.03125 44.753906 101.046875 C 44.578125 101.058594 44.445312 101.214844 44.457031 101.390625 C 44.613281 102.53125 45.179688 103.578125 46.054688 104.328125 C 46.109375 104.371094 46.179688 104.398438 46.253906 104.398438 C 46.328125 104.398438 46.398438 104.371094 46.453125 104.328125 C 47.328125 103.578125 47.894531 102.53125 48.050781 101.390625 C 48.0625 101.226562 47.953125 101.078125 47.789062 101.050781 Z M 42.148438 102.203125 C 42 102.125 41.808594 102.171875 41.71875 102.320312 C 41.636719 102.46875 41.523438 102.628906 41.410156 102.796875 C 40.835938 103.625 39.972656 104.882812 41.191406 106.214844 C 41.3125 106.320312 41.492188 106.316406 41.613281 106.207031 C 41.730469 106.101562 41.753906 105.921875 41.660156 105.789062 C 40.851562 104.914062 41.265625 104.15625 41.933594 103.179688 C 42.058594 102.996094 42.179688 102.824219 42.273438 102.664062 C 42.320312 102.585938 42.335938 102.492188 42.3125 102.40625 C 42.289062 102.320312 42.230469 102.246094 42.148438 102.203125 Z M 50.839844 102.320312 C 50.75 102.167969 50.554688 102.113281 50.398438 102.203125 C 50.246094 102.289062 50.195312 102.488281 50.28125 102.640625 C 50.375 102.804688 50.496094 102.976562 50.621094 103.15625 C 51.292969 104.132812 51.703125 104.890625 50.894531 105.765625 C 50.796875 105.847656 50.757812 105.976562 50.789062 106.097656 C 50.824219 106.21875 50.921875 106.308594 51.046875 106.328125 C 51.171875 106.351562 51.292969 106.296875 51.367188 106.195312 C 52.585938 104.875 51.71875 103.628906 51.148438 102.773438 C 51.039062 102.628906 50.929688 102.46875 50.839844 102.320312 Z M 42.796875 106.394531 C 42.851562 106.226562 42.761719 106.046875 42.589844 105.992188 C 42.421875 105.9375 42.242188 106.03125 42.1875 106.199219 C 41.941406 106.992188 42.28125 107.851562 43.003906 108.261719 C 43.15625 108.347656 43.351562 108.296875 43.441406 108.140625 C 43.53125 107.988281 43.476562 107.792969 43.324219 107.703125 C 42.863281 107.445312 42.644531 106.902344 42.796875 106.394531 Z M 49.527344 108.246094 C 50.25 107.835938 50.589844 106.980469 50.34375 106.1875 C 50.289062 106.015625 50.109375 105.925781 49.9375 105.976562 C 49.769531 106.03125 49.675781 106.214844 49.730469 106.382812 C 49.878906 106.882812 49.660156 107.421875 49.203125 107.679688 C 49.050781 107.765625 49 107.964844 49.085938 108.117188 C 49.175781 108.269531 49.371094 108.324219 49.527344 108.234375 Z M 47.5 106.460938 C 47.1875 106.816406 46.738281 107.019531 46.265625 107.019531 C 45.792969 107.019531 45.34375 106.816406 45.03125 106.460938 C 44.914062 106.324219 44.707031 106.308594 44.570312 106.425781 C 44.433594 106.542969 44.417969 106.75 44.535156 106.886719 C 44.96875 107.390625 45.597656 107.683594 46.261719 107.683594 C 46.925781 107.683594 47.558594 107.390625 47.992188 106.886719 C 48.109375 106.75 48.09375 106.542969 47.957031 106.425781 C 47.820312 106.308594 47.613281 106.324219 47.492188 106.460938 Z M 37.929688 100.203125 C 37.832031 100.136719 37.703125 100.132812 37.59375 100.191406 C 37.492188 100.25 37.429688 100.367188 37.433594 100.484375 C 37.441406 100.605469 37.515625 100.714844 37.625 100.765625 C 38.75 101.382812 39.234375 102.296875 39.234375 102.628906 C 39.234375 102.804688 39.378906 102.949219 39.554688 102.949219 C 39.734375 102.949219 39.878906 102.804688 39.878906 102.628906 C 39.878906 101.964844 39.148438 100.875 37.929688 100.203125 Z M 55.074219 100.332031 C 54.988281 100.179688 54.796875 100.125 54.644531 100.203125 C 53.417969 100.875 52.683594 101.964844 52.683594 102.632812 C 52.683594 102.808594 52.824219 102.953125 53.003906 102.953125 C 53.179688 102.953125 53.324219 102.808594 53.324219 102.632812 C 53.324219 102.304688 53.8125 101.382812 54.9375 100.765625 C 55.011719 100.726562 55.070312 100.660156 55.09375 100.578125 C 55.121094 100.496094 55.113281 100.40625 55.074219 100.332031 Z M 55.074219 100.332031 " />
    <path style=" stroke:none;fill-rule:nonzero;fill:rgb(0%,0%,0%);fill-opacity:1;" d="M 77.023438 111.402344 L 76.640625 110.445312 L 75.179688 110.445312 L 74.800781 111.402344 L 74.554688 111.402344 L 75.773438 108.347656 L 76.050781 108.347656 L 77.269531 111.402344 Z M 75.265625 110.230469 L 76.558594 110.230469 L 76.027344 108.898438 L 75.914062 108.574219 L 75.910156 108.574219 L 75.796875 108.890625 Z M 81.25 109.90625 L 82.507812 109.90625 L 82.507812 111.402344 L 82.320312 111.402344 L 82.3125 110.871094 C 82.226562 111.054688 82.097656 111.199219 81.921875 111.300781 C 81.742188 111.398438 81.523438 111.449219 81.257812 111.449219 C 80.984375 111.449219 80.742188 111.382812 80.53125 111.257812 C 80.324219 111.128906 80.164062 110.945312 80.050781 110.707031 C 79.9375 110.46875 79.882812 110.191406 79.882812 109.875 C 79.882812 109.558594 79.9375 109.28125 80.054688 109.042969 C 80.171875 108.804688 80.332031 108.621094 80.542969 108.492188 C 80.75 108.363281 80.996094 108.300781 81.273438 108.300781 C 81.585938 108.300781 81.839844 108.363281 82.039062 108.484375 C 82.234375 108.609375 82.382812 108.796875 82.484375 109.050781 L 82.269531 109.160156 C 82.199219 108.949219 82.078125 108.789062 81.910156 108.679688 C 81.742188 108.566406 81.53125 108.511719 81.273438 108.511719 C 81.046875 108.511719 80.84375 108.566406 80.671875 108.679688 C 80.5 108.789062 80.367188 108.945312 80.273438 109.148438 C 80.175781 109.355469 80.125 109.597656 80.125 109.875 C 80.125 110.296875 80.226562 110.632812 80.429688 110.875 C 80.632812 111.117188 80.914062 111.234375 81.269531 111.234375 C 81.492188 111.234375 81.679688 111.191406 81.835938 111.105469 C 81.988281 111.015625 82.101562 110.898438 82.175781 110.757812 C 82.25 110.613281 82.289062 110.460938 82.289062 110.292969 L 82.289062 110.125 L 81.25 110.125 Z M 85.871094 111.191406 L 87.800781 111.191406 L 87.800781 111.402344 L 85.640625 111.402344 L 85.640625 108.347656 L 87.726562 108.347656 L 87.726562 108.558594 L 85.871094 108.558594 L 85.871094 109.738281 L 87.335938 109.738281 L 87.335938 109.957031 L 85.871094 109.957031 Z M 93.132812 108.347656 L 93.132812 111.402344 L 92.84375 111.402344 L 91.226562 109.003906 L 91 108.597656 L 90.992188 108.597656 L 91.007812 108.980469 L 91.007812 111.402344 L 90.785156 111.402344 L 90.785156 108.347656 L 91.078125 108.347656 L 92.691406 110.742188 L 92.921875 111.148438 L 92.914062 110.765625 L 92.914062 108.347656 Z M 98.824219 110.628906 C 98.738281 110.890625 98.589844 111.089844 98.375 111.234375 C 98.160156 111.375 97.902344 111.449219 97.605469 111.449219 C 97.328125 111.449219 97.082031 111.382812 96.871094 111.257812 C 96.664062 111.128906 96.5 110.945312 96.386719 110.707031 C 96.273438 110.46875 96.21875 110.191406 96.21875 109.875 C 96.21875 109.558594 96.273438 109.28125 96.386719 109.042969 C 96.5 108.804688 96.664062 108.621094 96.871094 108.492188 C 97.082031 108.363281 97.324219 108.300781 97.597656 108.300781 C 98.210938 108.300781 98.605469 108.550781 98.785156 109.054688 L 98.558594 109.160156 C 98.488281 108.945312 98.375 108.78125 98.21875 108.675781 C 98.0625 108.566406 97.859375 108.511719 97.613281 108.511719 C 97.386719 108.511719 97.183594 108.566406 97.011719 108.679688 C 96.835938 108.789062 96.703125 108.945312 96.605469 109.148438 C 96.507812 109.355469 96.460938 109.597656 96.460938 109.875 C 96.460938 110.152344 96.507812 110.394531 96.605469 110.597656 C 96.695312 110.804688 96.828125 110.960938 97 111.070312 C 97.171875 111.179688 97.375 111.234375 97.605469 111.234375 C 97.851562 111.234375 98.0625 111.175781 98.234375 111.054688 C 98.40625 110.933594 98.527344 110.761719 98.59375 110.542969 Z M 102.054688 111.191406 L 103.984375 111.191406 L 103.984375 111.402344 L 101.820312 111.402344 L 101.820312 108.347656 L 103.90625 108.347656 L 103.90625 108.558594 L 102.054688 108.558594 L 102.054688 109.738281 L 103.519531 109.738281 L 103.519531 109.957031 L 102.054688 109.957031 Z M 111.695312 108.347656 C 112.179688 108.347656 112.554688 108.476562 112.820312 108.734375 C 113.085938 108.992188 113.21875 109.363281 113.21875 109.851562 C 113.21875 110.351562 113.085938 110.734375 112.820312 111 C 112.554688 111.269531 112.179688 111.402344 111.695312 111.402344 L 110.730469 111.402344 L 110.730469 108.347656 Z M 111.710938 111.191406 C 112.121094 111.191406 112.433594 111.074219 112.648438 110.84375 C 112.867188 110.613281 112.976562 110.28125 112.976562 109.851562 C 112.976562 109.4375 112.867188 109.117188 112.648438 108.894531 C 112.433594 108.671875 112.121094 108.558594 111.710938 108.558594 L 110.960938 108.558594 L 110.960938 111.191406 Z M 116.539062 111.191406 L 118.464844 111.191406 L 118.464844 111.402344 L 116.304688 111.402344 L 116.304688 108.347656 L 118.390625 108.347656 L 118.390625 108.558594 L 116.539062 108.558594 L 116.539062 109.738281 L 118 109.738281 L 118 109.957031 L 116.539062 109.957031 Z M 126.726562 109.257812 L 126.109375 111.402344 L 125.824219 111.402344 L 124.871094 108.347656 L 125.125 108.347656 L 125.96875 111.214844 L 126.769531 108.347656 L 127.039062 108.347656 L 127.835938 111.21875 L 128.695312 108.347656 L 128.929688 108.347656 L 127.976562 111.402344 L 127.691406 111.402344 L 127.074219 109.257812 L 126.90625 108.597656 L 126.898438 108.597656 Z M 132.09375 111.191406 L 134.027344 111.191406 L 134.027344 111.402344 L 131.863281 111.402344 L 131.863281 108.347656 L 133.953125 108.347656 L 133.953125 108.558594 L 132.09375 108.558594 L 132.09375 109.738281 L 133.5625 109.738281 L 133.5625 109.957031 L 132.09375 109.957031 Z M 137.011719 111.402344 L 137.011719 108.347656 L 138.089844 108.347656 C 138.425781 108.347656 138.675781 108.417969 138.839844 108.554688 C 139.003906 108.695312 139.085938 108.894531 139.085938 109.15625 C 139.085938 109.335938 139.035156 109.484375 138.9375 109.609375 C 138.84375 109.734375 138.703125 109.8125 138.527344 109.851562 L 138.527344 109.855469 C 138.726562 109.886719 138.882812 109.964844 138.996094 110.09375 C 139.113281 110.226562 139.171875 110.386719 139.171875 110.578125 C 139.171875 110.839844 139.078125 111.042969 138.890625 111.1875 C 138.703125 111.328125 138.4375 111.402344 138.089844 111.402344 Z M 137.242188 109.757812 L 138.097656 109.757812 C 138.59375 109.757812 138.839844 109.554688 138.839844 109.15625 C 138.839844 108.757812 138.59375 108.558594 138.097656 108.558594 L 137.242188 108.558594 Z M 137.242188 111.191406 L 138.136719 111.191406 C 138.394531 111.191406 138.59375 111.136719 138.726562 111.03125 C 138.855469 110.925781 138.921875 110.773438 138.921875 110.578125 C 138.921875 110.378906 138.855469 110.226562 138.726562 110.121094 C 138.59375 110.019531 138.394531 109.96875 138.136719 109.96875 L 137.242188 109.96875 Z M 146.976562 108.347656 C 147.464844 108.347656 147.84375 108.476562 148.105469 108.734375 C 148.367188 108.992188 148.5 109.363281 148.5 109.851562 C 148.5 110.351562 148.367188 110.734375 148.105469 111 C 147.84375 111.269531 147.464844 111.402344 146.976562 111.402344 L 146.015625 111.402344 L 146.015625 108.347656 Z M 146.996094 111.191406 C 147.40625 111.191406 147.71875 111.074219 147.9375 110.84375 C 148.152344 110.613281 148.257812 110.28125 148.257812 109.851562 C 148.257812 109.4375 148.152344 109.117188 147.9375 108.894531 C 147.71875 108.671875 147.40625 108.558594 146.996094 108.558594 L 146.246094 108.558594 L 146.246094 111.191406 Z M 151.820312 111.191406 L 153.75 111.191406 L 153.75 111.402344 L 151.589844 111.402344 L 151.589844 108.347656 L 153.675781 108.347656 L 153.675781 108.558594 L 151.820312 108.558594 L 151.820312 109.738281 L 153.289062 109.738281 L 153.289062 109.957031 L 151.820312 109.957031 Z M 157.679688 108.300781 C 158.253906 108.300781 158.640625 108.523438 158.832031 108.976562 L 158.632812 109.136719 C 158.554688 108.917969 158.441406 108.761719 158.289062 108.660156 C 158.132812 108.5625 157.933594 108.511719 157.6875 108.511719 C 157.503906 108.511719 157.347656 108.539062 157.214844 108.597656 C 157.082031 108.652344 156.984375 108.726562 156.914062 108.824219 C 156.84375 108.921875 156.808594 109.027344 156.808594 109.148438 C 156.808594 109.265625 156.839844 109.359375 156.898438 109.4375 C 156.957031 109.515625 157.054688 109.582031 157.195312 109.636719 C 157.335938 109.6875 157.53125 109.738281 157.777344 109.78125 C 158.175781 109.851562 158.457031 109.949219 158.625 110.078125 C 158.789062 110.207031 158.871094 110.386719 158.871094 110.617188 C 158.871094 110.777344 158.824219 110.921875 158.730469 111.050781 C 158.636719 111.175781 158.5 111.273438 158.328125 111.34375 C 158.148438 111.414062 157.949219 111.449219 157.726562 111.449219 C 157.40625 111.449219 157.136719 111.382812 156.914062 111.257812 C 156.691406 111.128906 156.539062 110.949219 156.460938 110.71875 L 156.667969 110.558594 C 156.726562 110.78125 156.851562 110.945312 157.039062 111.0625 C 157.226562 111.179688 157.457031 111.234375 157.730469 111.234375 C 157.996094 111.234375 158.210938 111.183594 158.378906 111.074219 C 158.550781 110.96875 158.632812 110.816406 158.632812 110.628906 C 158.632812 110.464844 158.5625 110.335938 158.425781 110.242188 C 158.289062 110.144531 158.050781 110.066406 157.710938 110.007812 C 157.425781 109.960938 157.199219 109.898438 157.03125 109.828125 C 156.867188 109.757812 156.746094 109.671875 156.671875 109.5625 C 156.601562 109.460938 156.5625 109.328125 156.5625 109.171875 C 156.5625 109.015625 156.609375 108.867188 156.699219 108.738281 C 156.789062 108.601562 156.921875 108.496094 157.089844 108.421875 C 157.257812 108.339844 157.453125 108.300781 157.679688 108.300781 Z M 162.144531 108.347656 L 162.144531 111.402344 L 161.914062 111.402344 L 161.914062 108.347656 Z M 166.597656 109.90625 L 167.851562 109.90625 L 167.851562 111.402344 L 167.667969 111.402344 L 167.660156 110.871094 C 167.578125 111.054688 167.445312 111.199219 167.265625 111.300781 C 167.089844 111.398438 166.871094 111.449219 166.609375 111.449219 C 166.332031 111.449219 166.085938 111.382812 165.878906 111.257812 C 165.671875 111.128906 165.511719 110.945312 165.398438 110.707031 C 165.285156 110.46875 165.230469 110.191406 165.230469 109.875 C 165.230469 109.558594 165.289062 109.28125 165.402344 109.042969 C 165.519531 108.804688 165.679688 108.621094 165.890625 108.492188 C 166.101562 108.363281 166.34375 108.300781 166.621094 108.300781 C 166.933594 108.300781 167.1875 108.363281 167.386719 108.484375 C 167.585938 108.609375 167.730469 108.796875 167.828125 109.050781 L 167.617188 109.160156 C 167.546875 108.949219 167.429688 108.789062 167.257812 108.679688 C 167.089844 108.566406 166.878906 108.511719 166.621094 108.511719 C 166.390625 108.511719 166.191406 108.566406 166.019531 108.679688 C 165.847656 108.789062 165.714844 108.945312 165.617188 109.148438 C 165.523438 109.355469 165.476562 109.597656 165.476562 109.875 C 165.476562 110.296875 165.578125 110.632812 165.777344 110.875 C 165.980469 111.117188 166.257812 111.234375 166.617188 111.234375 C 166.839844 111.234375 167.027344 111.191406 167.179688 111.105469 C 167.335938 111.015625 167.449219 110.898438 167.523438 110.757812 C 167.601562 110.613281 167.636719 110.460938 167.636719 110.292969 L 167.636719 110.125 L 166.597656 110.125 Z M 173.332031 108.347656 L 173.332031 111.402344 L 173.046875 111.402344 L 171.425781 109.003906 L 171.203125 108.597656 L 171.195312 108.597656 L 171.207031 108.980469 L 171.207031 111.402344 L 170.984375 111.402344 L 170.984375 108.347656 L 171.277344 108.347656 L 172.894531 110.742188 L 173.125 111.148438 L 173.117188 110.765625 L 173.117188 108.347656 Z M 173.332031 108.347656 " />
  </g>
</svg>